<svg width="35" height="35" viewBox="0 0 35 35" fill="none" xmlns="http://www.w3.org/2000/svg">
<path d="M20.4167 29.1667V27.3438C20.4167 26.9549 20.4957 26.5842 20.6537 26.2318C20.8117 25.8794 21.0243 25.5695 21.2917 25.3021L28.474 18.1198C28.6928 17.9011 28.9358 17.7431 29.2032 17.6458C29.4705 17.5486 29.7379 17.5 30.0053 17.5C30.2969 17.5 30.5764 17.5547 30.8438 17.6641C31.1112 17.7734 31.3542 17.9375 31.573 18.1563L32.9219 19.5052C33.1164 19.724 33.2683 19.967 33.3776 20.2344C33.487 20.5017 33.5417 20.7691 33.5417 21.0365C33.5417 21.3038 33.4931 21.5773 33.3959 21.8568C33.2987 22.1363 33.1407 22.3854 32.9219 22.6042L25.7396 29.7865C25.4723 30.0538 25.1624 30.2604 24.8099 30.4063C24.4575 30.5521 24.0868 30.625 23.698 30.625H21.875C21.4618 30.625 21.1155 30.4853 20.836 30.2057C20.5565 29.9262 20.4167 29.5799 20.4167 29.1667ZM5.83337 27.7083V25.0833C5.83337 24.257 6.04605 23.4974 6.47139 22.8047C6.89674 22.112 7.46185 21.5833 8.16671 21.2188C9.67365 20.4653 11.2049 19.9002 12.7605 19.5234C14.316 19.1467 15.8959 18.9583 17.5 18.9583C18.3993 18.9583 19.2865 19.013 20.1615 19.1224C21.0365 19.2318 21.9115 19.408 22.7865 19.6511L18.7761 23.6615C18.3629 24.0747 18.0469 24.5486 17.8282 25.0833C17.6094 25.6181 17.5 26.1771 17.5 26.7604V29.1667H7.29171C6.87851 29.1667 6.53216 29.0269 6.25264 28.7474C5.97313 28.4679 5.83337 28.1215 5.83337 27.7083ZM30.0053 22.4583L31.3542 21.0365L30.0053 19.6875L28.6198 21.0729L30.0053 22.4583ZM17.5 17.5C15.8959 17.5 14.5226 16.9288 13.3802 15.7865C12.2379 14.6441 11.6667 13.2708 11.6667 11.6667C11.6667 10.0625 12.2379 8.68925 13.3802 7.54689C14.5226 6.40452 15.8959 5.83334 17.5 5.83334C19.1042 5.83334 20.4775 6.40452 21.6198 7.54689C22.7622 8.68925 23.3334 10.0625 23.3334 11.6667C23.3334 13.2708 22.7622 14.6441 21.6198 15.7865C20.4775 16.9288 19.1042 17.5 17.5 17.5Z" fill="white"/>
</svg>
