<svg width="35" height="35" viewBox="0 0 35 35" fill="none" xmlns="http://www.w3.org/2000/svg">
<g clip-path="url(#clip0_14_9)">
<path d="M27.7083 4.37499H21.6125C21 2.68333 19.3958 1.45833 17.5 1.45833C15.6042 1.45833 14 2.68333 13.3875 4.37499H7.29167C5.6875 4.37499 4.375 5.68749 4.375 7.29166V27.7083C4.375 29.3125 5.6875 30.625 7.29167 30.625H27.7083C29.3125 30.625 30.625 29.3125 30.625 27.7083V7.29166C30.625 5.68749 29.3125 4.37499 27.7083 4.37499ZM17.5 4.37499C18.3021 4.37499 18.9583 5.03124 18.9583 5.83333C18.9583 6.63541 18.3021 7.29166 17.5 7.29166C16.6979 7.29166 16.0417 6.63541 16.0417 5.83333C16.0417 5.03124 16.6979 4.37499 17.5 4.37499ZM20.4167 24.7917H10.2083V21.875H20.4167V24.7917ZM24.7917 18.9583H10.2083V16.0417H24.7917V18.9583ZM24.7917 13.125H10.2083V10.2083H24.7917V13.125Z" fill="white"/>
</g>
<defs>
<clipPath id="clip0_14_9">
<rect width="35" height="35" fill="white"/>
</clipPath>
</defs>
</svg>
